<?xml version="1.0" encoding="UTF-8" standalone="no"?>
<!-- Created with Inkscape (http://www.inkscape.org/) -->

<svg
   xmlns:dc="http://purl.org/dc/elements/1.1/"
   xmlns:cc="http://creativecommons.org/ns#"
   xmlns:rdf="http://www.w3.org/1999/02/22-rdf-syntax-ns#"
   xmlns:svg="http://www.w3.org/2000/svg"
   xmlns="http://www.w3.org/2000/svg"
   xmlns:sodipodi="http://sodipodi.sourceforge.net/DTD/sodipodi-0.dtd"
   xmlns:inkscape="http://www.inkscape.org/namespaces/inkscape"
   width="64"
   height="64"
   id="svg2"
   version="1.1"
   inkscape:version="0.48.3.1 r9886"
   sodipodi:docname="logo.svg"
   inkscape:export-filename="logo-64.png"
   inkscape:export-xdpi="90"
   inkscape:export-ydpi="90">
  <defs
     id="defs4" />
  <sodipodi:namedview
     id="base"
     pagecolor="#ffffff"
     bordercolor="#666666"
     borderopacity="1.0"
     inkscape:pageopacity="0.0"
     inkscape:pageshadow="2"
     inkscape:zoom="9.3249707"
     inkscape:cx="32"
     inkscape:cy="32.73211"
     inkscape:document-units="px"
     inkscape:current-layer="layer1"
     showgrid="false"
     inkscape:window-width="1291"
     inkscape:window-height="1031"
     inkscape:window-x="76"
     inkscape:window-y="162"
     inkscape:window-maximized="0" />
  <metadata
     id="metadata7">
    <rdf:RDF>
      <cc:Work
         rdf:about="">
        <dc:format>image/svg+xml</dc:format>
        <dc:type
           rdf:resource="http://purl.org/dc/dcmitype/StillImage" />
        <dc:title></dc:title>
      </cc:Work>
    </rdf:RDF>
  </metadata>
  <g
     inkscape:label="Layer 1"
     inkscape:groupmode="layer"
     id="layer1"
     transform="translate(0,-988.36218)">
    <path
       id="path2816"
       d="m 22.468795,990.26586 c 0,20.24954 0,40.49914 0,60.74874"
       style="fill:none;stroke:#000000;stroke-width:0.69523865;stroke-linecap:butt;stroke-linejoin:miter;stroke-miterlimit:4;stroke-opacity:1;stroke-dasharray:none"
       inkscape:connector-curvature="0" />
    <path
       id="path2816-1"
       d="m 42.075076,989.73914 c 0,20.24956 0,40.49916 0,60.74866"
       style="fill:none;stroke:#000000;stroke-width:0.69523865;stroke-linecap:butt;stroke-linejoin:miter;stroke-miterlimit:4;stroke-opacity:1;stroke-dasharray:none"
       inkscape:connector-curvature="0" />
    <path
       id="path2816-1-7"
       d="m 1.2731559,1009.8233 c 20.2495661,0 40.4991361,0 60.7487031,0"
       style="fill:none;stroke:#000000;stroke-width:0.69523865;stroke-linecap:butt;stroke-linejoin:miter;stroke-miterlimit:4;stroke-opacity:1;stroke-dasharray:none"
       inkscape:connector-curvature="0" />
    <path
       id="path2816-1-7-4"
       d="m 1.624307,1028.7853 c 20.249566,0 40.499136,0 60.748703,0"
       style="fill:none;stroke:#000000;stroke-width:0.69523865;stroke-linecap:butt;stroke-linejoin:miter;stroke-miterlimit:4;stroke-opacity:1;stroke-dasharray:none"
       inkscape:connector-curvature="0" />
    <path
       id="path3662"
       d="m 3.825614,1031.7098 c 6.019671,4.7342 10.906017,10.728 16.90123,15.4858 -1.970883,1.8239 -3.59236,-2.0002 -5.27245,-2.8617 -4.155841,-4.0676 -8.139232,-8.3652 -12.793656,-11.8782 0.38829,-0.2487 0.776585,-0.4973 1.164876,-0.7459 z"
       style="color:#000000;fill:#000000;fill-opacity:1;fill-rule:nonzero;stroke:#000000;stroke-width:0.69523865;stroke-linecap:butt;stroke-linejoin:miter;stroke-miterlimit:4;stroke-opacity:1;stroke-dasharray:none;stroke-dashoffset:0;marker:none;visibility:visible;display:inline;overflow:visible;enable-background:accumulate"
       inkscape:connector-curvature="0" />
    <path
       id="path3664"
       d="m 17.474236,1033.1956 c -3.202686,2.1161 -5.892095,4.9656 -8.357808,7.8849 -1.493605,1.3918 -1.366686,4.212 -3.56809,4.7433 1.26036,-3.0419 3.209757,-5.7244 5.699157,-7.8824 1.858411,-1.8004 3.680555,-3.9486 6.226741,-4.7458 z"
       style="color:#000000;fill:#000000;fill-opacity:1;fill-rule:nonzero;stroke:#000000;stroke-width:0.69523865;stroke-linecap:butt;stroke-linejoin:miter;stroke-miterlimit:4;stroke-opacity:1;stroke-dasharray:none;stroke-dashoffset:0;marker:none;visibility:visible;display:inline;overflow:visible;enable-background:accumulate"
       inkscape:connector-curvature="0" />
    <path
       id="path3666"
       d="m 33.377094,995.13147 c -0.929516,-0.1723 -4.168324,0.75268 -3.630922,0.66639 0.865976,-0.68433 -2.163266,2.2882 -1.576905,3.65183 -0.411317,3.73571 3.549245,5.89391 6.726183,6.27091 0.806623,0.073 2.986975,-0.9577 1.129857,-0.054 1.995485,-2.5213 1.469012,-6.64601 -0.65359,-9.00116 -1.33474,-0.82535 -3.91289,-2.67703 -1.13268,-2.39434 3.132068,1.44451 4.879071,5.12906 4.045872,8.4696 -0.106013,3.7162 -5.248673,4.7114 -7.810231,2.6955 -3.326102,-1.0963 -4.533168,-5.3551 -2.674517,-8.19663 1.177352,-2.09626 5.282093,-3.18149 6.414786,-2.71664 -0.279284,0.20292 -0.558568,0.40583 -0.837853,0.60874 z"
       style="color:#000000;fill:#000000;fill-opacity:1;fill-rule:nonzero;stroke:#000000;stroke-width:0.69523865;stroke-linecap:butt;stroke-linejoin:miter;stroke-miterlimit:4;stroke-opacity:1;stroke-dasharray:none;stroke-dashoffset:0;marker:none;visibility:visible;display:inline;overflow:visible;enable-background:accumulate"
       inkscape:connector-curvature="0" />
    <path
       id="path3668"
       d="m 47.842244,1012.4379 c 3.519329,3.7507 6.669782,7.8739 10.595517,11.2159 1.628568,1.5131 -1.348603,2.5219 -1.465251,0.404 -3.795975,-3.2728 -6.790785,-7.3432 -10.31357,-10.8947 0.394434,-0.2418 0.78887,-0.4835 1.183304,-0.7252 z"
       style="color:#000000;fill:#000000;fill-opacity:1;fill-rule:nonzero;stroke:#000000;stroke-width:0.69523865;stroke-linecap:butt;stroke-linejoin:miter;stroke-miterlimit:4;stroke-opacity:1;stroke-dasharray:none;stroke-dashoffset:0;marker:none;visibility:visible;display:inline;overflow:visible;enable-background:accumulate"
       inkscape:connector-curvature="0" />
    <path
       id="path3670"
       d="m 57.04127,1013.5552 c -2.790257,2.6263 -6.246407,4.5614 -8.583003,7.6352 -0.128515,1.3928 -3.342701,3.3577 -1.501476,0.9717 2.051726,-3.3218 5.713537,-5.1219 8.456967,-7.8019 0.419945,-0.4586 1.088079,-0.5383 1.627512,-0.805 z"
       style="color:#000000;fill:#000000;fill-opacity:1;fill-rule:nonzero;stroke:#000000;stroke-width:0.69523865;stroke-linecap:butt;stroke-linejoin:miter;stroke-miterlimit:4;stroke-opacity:1;stroke-dasharray:none;stroke-dashoffset:0;marker:none;visibility:visible;display:inline;overflow:visible;enable-background:accumulate"
       inkscape:connector-curvature="0" />
    <path
       id="path3674"
       d="m 34.621363,1012.5089 c -1.150376,0.229 -2.805381,0.9803 -2.409165,0.8316 -1.101265,0.6504 -1.093569,0.5709 -0.593014,0.4404 -3.07129,1.7389 -4.833219,7.3578 -1.697276,9.7216 1.79016,1.7755 7.145541,1.5954 7.161643,1.1902 -0.956443,0.6063 1.784737,-1.9518 1.388034,-3.1558 0.812442,-3.3691 -2.256811,-6.0639 -4.635271,-7.8595 -3.261973,-0.2492 2.012973,-2 2.495597,0.2869 2.635417,2.1197 4.617271,5.6031 2.82708,8.915 -1.637857,2.814 -5.517984,3.8423 -8.371302,2.2885 -4.326578,-0.7006 -4.433447,-5.9469 -2.456734,-8.9658 1.319327,-2.1425 6.177724,-4.5517 6.977579,-4.2099 -0.229057,0.1723 -0.458124,0.3446 -0.687171,0.5168 z"
       style="color:#000000;fill:#000000;fill-opacity:1;fill-rule:nonzero;stroke:#000000;stroke-width:0.69523865;stroke-linecap:butt;stroke-linejoin:miter;stroke-miterlimit:4;stroke-opacity:1;stroke-dasharray:none;stroke-dashoffset:0;marker:none;visibility:visible;display:inline;overflow:visible;enable-background:accumulate"
       inkscape:connector-curvature="0" />
    <path
       id="path3676"
       d="m 7.8539548,1012.6812 c 4.8657142,2.7905 8.3866322,7.2796 12.3407052,11.1471 -1.738889,1.7883 -2.832538,-1.5779 -4.231747,-2.4467 -2.74287,-2.9911 -5.634976,-6.0176 -9.2626094,-7.9275 0.3845504,-0.2577 0.7691008,-0.5153 1.1536512,-0.7729 z"
       style="color:#000000;fill:#000000;fill-opacity:1;fill-rule:nonzero;stroke:#000000;stroke-width:0.69523865;stroke-linecap:butt;stroke-linejoin:miter;stroke-miterlimit:4;stroke-opacity:1;stroke-dasharray:none;stroke-dashoffset:0;marker:none;visibility:visible;display:inline;overflow:visible;enable-background:accumulate"
       inkscape:connector-curvature="0" />
    <path
       id="path3678"
       d="m 17.32409,1012.5703 c -2.766716,3.5321 -5.833192,6.8003 -9.062193,9.913 -0.4455713,1.2287 -4.5629345,4.0972 -2.1446859,1.522 3.2385329,-3.4805 6.7834989,-6.6965 9.6306679,-10.5335 0.324774,-0.5541 1.05424,-0.6068 1.576211,-0.9015 z"
       style="color:#000000;fill:#000000;fill-opacity:1;fill-rule:nonzero;stroke:#000000;stroke-width:0.69523865;stroke-linecap:butt;stroke-linejoin:miter;stroke-miterlimit:4;stroke-opacity:1;stroke-dasharray:none;stroke-dashoffset:0;marker:none;visibility:visible;display:inline;overflow:visible;enable-background:accumulate"
       inkscape:connector-curvature="0" />
    <path
       id="path3680"
       d="m 51.502592,994.4434 c -1.036048,0.6042 -1.555583,0.8403 -1.203236,0.6771 -0.607207,0.3902 -2.869236,1.5601 -1.055393,0.6033 -3.518895,2.1984 -2.399689,6.712 1.136621,8.1402 2.27105,0.9865 5.074679,1.1961 7.269847,-0.1571 -2.309096,1.7206 1.96796,-1.9239 0.478991,-3.4093 -1.206816,-3.0893 -4.796997,-4.3076 -7.859631,-4.4927 -2.978545,-0.2573 2.094605,-1.4916 3.127771,-0.4918 2.974902,0.4829 6.835628,2.9536 5.955254,6.4602 -1.105137,2.887 -4.930886,4.1664 -7.794275,3.51 -3.091413,-0.2913 -7.318381,-3.6944 -5.257659,-7.0441 0.440854,-1.3364 3.235794,-3.1404 3.523897,-3.0921 -1.292219,0.8437 5.270681,-3.2696 1.677813,-0.7037 z"
       style="color:#000000;fill:#000000;fill-opacity:1;fill-rule:nonzero;stroke:#000000;stroke-width:0.69523865;stroke-linecap:butt;stroke-linejoin:miter;stroke-miterlimit:4;stroke-opacity:1;stroke-dasharray:none;stroke-dashoffset:0;marker:none;visibility:visible;display:inline;overflow:visible;enable-background:accumulate"
       inkscape:connector-curvature="0" />
    <text
       xml:space="preserve"
       style="font-size:22.36944388999999944px;font-style:italic;font-variant:normal;font-weight:bold;font-stretch:normal;text-align:start;line-height:125%;letter-spacing:0px;word-spacing:0px;writing-mode:lr-tb;text-anchor:start;fill:#060080;fill-opacity:1;stroke:none;font-family:Comic Sans MS;-inkscape-font-specification:Comic Sans MS Bold Italic"
       x="1.3912268"
       y="1007.75"
       id="text3063"
       sodipodi:linespacing="125%"><tspan
         sodipodi:role="line"
         id="tspan3065"
         x="1.3912268"
         y="1007.75">T</tspan></text>
    <text
       xml:space="preserve"
       style="font-size:22.36944388999999944px;font-style:italic;font-variant:normal;font-weight:bold;font-stretch:normal;text-align:start;line-height:125%;letter-spacing:0px;word-spacing:0px;writing-mode:lr-tb;text-anchor:start;fill:#060080;fill-opacity:1;stroke:none;font-family:Comic Sans MS;-inkscape-font-specification:Comic Sans MS Bold Italic"
       x="42.529594"
       y="1048.0853"
       id="text3067"
       sodipodi:linespacing="125%"><tspan
         sodipodi:role="line"
         id="tspan3069"
         x="42.529594"
         y="1048.0853">M</tspan></text>
  </g>
</svg>
